<svg width="310" height="125" viewBox="0 0 310 125" fill="none" xmlns="http://www.w3.org/2000/svg">
<mask id="path-1-inside-1_115_40" fill="white">
<path d="M71.1131 40.1744C72.0802 37.5174 75.0498 36.1105 77.4979 37.5254C81.9894 40.1214 85.7383 43.8823 88.3228 48.4509C91.7532 54.5148 92.9071 61.6038 91.577 68.4425C90.2469 75.2813 86.5201 81.421 81.067 85.7571C75.6139 90.0932 68.7925 92.3411 61.8299 92.0964C54.8673 91.8517 48.2205 89.1305 43.0853 84.4224C37.95 79.7142 34.6634 73.328 33.8166 66.4128C32.9698 59.4975 34.6185 52.5071 38.466 46.6989C41.3648 42.323 45.3685 38.8345 50.0312 36.5602C52.5725 35.3207 55.4361 36.9325 56.2143 39.6508C56.9924 42.3692 55.3624 45.1503 52.9489 46.6234C50.5883 48.0643 48.5523 50.0138 47.0023 52.3537C44.5013 56.1291 43.4296 60.6731 43.9801 65.1683C44.5305 69.6634 46.6669 73.8145 50.005 76.875C53.343 79.9355 57.6636 81.7043 62.1895 81.8633C66.7154 82.0224 71.1495 80.5612 74.6942 77.7426C78.2388 74.924 80.6614 70.933 81.526 66.4876C82.3906 62.0423 81.6405 57.4342 79.4107 53.4925C78.0287 51.0496 76.1346 48.9621 73.881 47.359C71.5769 45.72 70.146 42.8314 71.1131 40.1744Z"/>
</mask>
<path d="M71.1131 40.1744C72.0802 37.5174 75.0498 36.1105 77.4979 37.5254C81.9894 40.1214 85.7383 43.8823 88.3228 48.4509C91.7532 54.5148 92.9071 61.6038 91.577 68.4425C90.2469 75.2813 86.5201 81.421 81.067 85.7571C75.6139 90.0932 68.7925 92.3411 61.8299 92.0964C54.8673 91.8517 48.2205 89.1305 43.0853 84.4224C37.95 79.7142 34.6634 73.328 33.8166 66.4128C32.9698 59.4975 34.6185 52.5071 38.466 46.6989C41.3648 42.323 45.3685 38.8345 50.0312 36.5602C52.5725 35.3207 55.4361 36.9325 56.2143 39.6508C56.9924 42.3692 55.3624 45.1503 52.9489 46.6234C50.5883 48.0643 48.5523 50.0138 47.0023 52.3537C44.5013 56.1291 43.4296 60.6731 43.9801 65.1683C44.5305 69.6634 46.6669 73.8145 50.005 76.875C53.343 79.9355 57.6636 81.7043 62.1895 81.8633C66.7154 82.0224 71.1495 80.5612 74.6942 77.7426C78.2388 74.924 80.6614 70.933 81.526 66.4876C82.3906 62.0423 81.6405 57.4342 79.4107 53.4925C78.0287 51.0496 76.1346 48.9621 73.881 47.359C71.5769 45.72 70.146 42.8314 71.1131 40.1744Z" fill="#D3965D" stroke="#D3965D" stroke-width="4" stroke-linejoin="round" mask="url(#path-1-inside-1_115_40)"/>
<mask id="path-2-inside-2_115_40" fill="white">
<path d="M77.0926 102.593C78.2443 105.757 81.7665 107.422 84.7623 105.885C93.1976 101.556 100.231 94.8385 104.942 86.5098C110.66 76.4034 112.583 64.5885 110.366 53.1905C108.149 41.7926 101.938 31.5598 92.8493 24.333C83.7609 17.1061 72.3918 13.3596 60.7875 13.7674C49.1831 14.1752 38.1052 18.7105 29.5464 26.5575C20.9877 34.4044 15.5099 45.048 14.0986 56.5734C12.6873 68.0989 15.4351 79.7496 21.8477 89.4298C27.1322 97.4072 34.6197 103.615 43.3379 107.34C46.4343 108.664 49.831 106.756 50.7577 103.518C51.6844 100.281 49.7791 96.9504 46.7406 95.4992C40.7964 92.6604 35.6929 88.2501 32.0134 82.6957C27.2044 75.4361 25.1438 66.6988 26.2021 58.0555C27.2605 49.4122 31.3685 41.4302 37.787 35.5455C44.2055 29.6608 52.5132 26.2596 61.2157 25.9538C69.9182 25.648 78.4443 28.4576 85.26 33.8773C92.0758 39.2969 96.7339 46.9708 98.3963 55.5186C100.059 64.0663 98.6165 72.9267 94.329 80.5059C91.0485 86.3049 86.2671 91.0626 80.5369 94.3116C77.6077 95.9725 75.9409 99.4289 77.0926 102.593Z"/>
</mask>
<path d="M77.0926 102.593C78.2443 105.757 81.7665 107.422 84.7623 105.885C93.1976 101.556 100.231 94.8385 104.942 86.5098C110.66 76.4034 112.583 64.5885 110.366 53.1905C108.149 41.7926 101.938 31.5598 92.8493 24.333C83.7609 17.1061 72.3918 13.3596 60.7875 13.7674C49.1831 14.1752 38.1052 18.7105 29.5464 26.5575C20.9877 34.4044 15.5099 45.048 14.0986 56.5734C12.6873 68.0989 15.4351 79.7496 21.8477 89.4298C27.1322 97.4072 34.6197 103.615 43.3379 107.34C46.4343 108.664 49.831 106.756 50.7577 103.518C51.6844 100.281 49.7791 96.9504 46.7406 95.4992C40.7964 92.6604 35.6929 88.2501 32.0134 82.6957C27.2044 75.4361 25.1438 66.6988 26.2021 58.0555C27.2605 49.4122 31.3685 41.4302 37.787 35.5455C44.2055 29.6608 52.5132 26.2596 61.2157 25.9538C69.9182 25.648 78.4443 28.4576 85.26 33.8773C92.0758 39.2969 96.7339 46.9708 98.3963 55.5186C100.059 64.0663 98.6165 72.9267 94.329 80.5059C91.0485 86.3049 86.2671 91.0626 80.5369 94.3116C77.6077 95.9725 75.9409 99.4289 77.0926 102.593Z" fill="#D3965D" stroke="#D3965D" stroke-width="4" stroke-linejoin="round" mask="url(#path-2-inside-2_115_40)"/>
<circle cx="62.4166" cy="62.4166" r="8.75257" fill="#D3965D" stroke="#D3965D" stroke-width="2" stroke-linejoin="round"/>
<mask id="path-4-outside-3_115_40" maskUnits="userSpaceOnUse" x="118" y="38" width="192" height="51" fill="black">
<rect fill="white" x="118" y="38" width="192" height="51"/>
<path d="M138.37 86.896C134.914 86.896 131.863 86.2773 129.218 85.04C126.572 83.8027 124.503 82.032 123.01 79.728C121.516 77.424 120.77 74.6507 120.77 71.408V69.616H129.09V71.408C129.09 74.096 129.922 76.1227 131.586 77.488C133.25 78.8107 135.511 79.472 138.37 79.472C141.271 79.472 143.426 78.896 144.834 77.744C146.284 76.592 147.01 75.12 147.01 73.328C147.01 72.0907 146.647 71.088 145.922 70.32C145.239 69.552 144.215 68.9333 142.85 68.464C141.527 67.952 139.906 67.4827 137.986 67.056L136.514 66.736C133.442 66.0533 130.796 65.2 128.578 64.176C126.402 63.1093 124.716 61.7227 123.522 60.016C122.37 58.3093 121.794 56.0907 121.794 53.36C121.794 50.6293 122.434 48.304 123.714 46.384C125.036 44.4213 126.871 42.928 129.218 41.904C131.607 40.8373 134.402 40.304 137.602 40.304C140.802 40.304 143.639 40.8587 146.114 41.968C148.631 43.0347 150.594 44.656 152.002 46.832C153.452 48.9653 154.178 51.6533 154.178 54.896V56.816H145.858V54.896C145.858 53.1893 145.516 51.824 144.834 50.8C144.194 49.7333 143.255 48.9653 142.018 48.496C140.78 47.984 139.308 47.728 137.602 47.728C135.042 47.728 133.143 48.2187 131.906 49.2C130.711 50.1387 130.114 51.44 130.114 53.104C130.114 54.2133 130.391 55.152 130.946 55.92C131.543 56.688 132.418 57.328 133.57 57.84C134.722 58.352 136.194 58.8 137.986 59.184L139.458 59.504C142.658 60.1867 145.431 61.0613 147.778 62.128C150.167 63.1947 152.023 64.6027 153.346 66.352C154.668 68.1013 155.33 70.3413 155.33 73.072C155.33 75.8027 154.626 78.2133 153.218 80.304C151.852 82.352 149.89 83.9733 147.33 85.168C144.812 86.32 141.826 86.896 138.37 86.896ZM161.63 86V41.2H180.062C182.878 41.2 185.353 41.776 187.486 42.928C189.662 44.0373 191.348 45.616 192.542 47.664C193.78 49.712 194.398 52.144 194.398 54.96V55.856C194.398 58.6293 193.758 61.0613 192.478 63.152C191.241 65.2 189.534 66.8 187.358 67.952C185.225 69.0613 182.793 69.616 180.062 69.616H170.078V86H161.63ZM170.078 61.936H179.23C181.236 61.936 182.857 61.3813 184.094 60.272C185.332 59.1627 185.95 57.648 185.95 55.728V55.088C185.95 53.168 185.332 51.6533 184.094 50.544C182.857 49.4347 181.236 48.88 179.23 48.88H170.078V61.936ZM193.746 86L205.522 41.2H220.242L232.018 86H223.314L220.882 76.144H204.882L202.45 86H193.746ZM206.866 68.336H218.898L213.458 46.512H212.306L206.866 68.336ZM254.029 86.896C248.483 86.896 244.088 85.36 240.845 82.288C237.603 79.1733 235.981 74.736 235.981 68.976V58.224C235.981 52.464 237.603 48.048 240.845 44.976C244.088 41.8613 248.483 40.304 254.029 40.304C259.533 40.304 263.779 41.8187 266.765 44.848C269.795 47.8347 271.309 51.952 271.309 57.2V57.584H262.989V56.944C262.989 54.2987 262.243 52.1227 260.749 50.416C259.299 48.7093 257.059 47.856 254.029 47.856C251.043 47.856 248.696 48.7733 246.989 50.608C245.283 52.4427 244.429 54.9387 244.429 58.096V69.104C244.429 72.2187 245.283 74.7147 246.989 76.592C248.696 78.4267 251.043 79.344 254.029 79.344C257.059 79.344 259.299 78.4907 260.749 76.784C262.243 75.0347 262.989 72.8587 262.989 70.256V69.104H271.309V70C271.309 75.248 269.795 79.3867 266.765 82.416C263.779 85.4027 259.533 86.896 254.029 86.896ZM278.193 86V41.2H306.993V48.88H286.641V59.568H305.201V67.248H286.641V78.32H307.377V86H278.193Z"/>
</mask>
<path d="M138.37 86.896C134.914 86.896 131.863 86.2773 129.218 85.04C126.572 83.8027 124.503 82.032 123.01 79.728C121.516 77.424 120.77 74.6507 120.77 71.408V69.616H129.09V71.408C129.09 74.096 129.922 76.1227 131.586 77.488C133.25 78.8107 135.511 79.472 138.37 79.472C141.271 79.472 143.426 78.896 144.834 77.744C146.284 76.592 147.01 75.12 147.01 73.328C147.01 72.0907 146.647 71.088 145.922 70.32C145.239 69.552 144.215 68.9333 142.85 68.464C141.527 67.952 139.906 67.4827 137.986 67.056L136.514 66.736C133.442 66.0533 130.796 65.2 128.578 64.176C126.402 63.1093 124.716 61.7227 123.522 60.016C122.37 58.3093 121.794 56.0907 121.794 53.36C121.794 50.6293 122.434 48.304 123.714 46.384C125.036 44.4213 126.871 42.928 129.218 41.904C131.607 40.8373 134.402 40.304 137.602 40.304C140.802 40.304 143.639 40.8587 146.114 41.968C148.631 43.0347 150.594 44.656 152.002 46.832C153.452 48.9653 154.178 51.6533 154.178 54.896V56.816H145.858V54.896C145.858 53.1893 145.516 51.824 144.834 50.8C144.194 49.7333 143.255 48.9653 142.018 48.496C140.78 47.984 139.308 47.728 137.602 47.728C135.042 47.728 133.143 48.2187 131.906 49.2C130.711 50.1387 130.114 51.44 130.114 53.104C130.114 54.2133 130.391 55.152 130.946 55.92C131.543 56.688 132.418 57.328 133.57 57.84C134.722 58.352 136.194 58.8 137.986 59.184L139.458 59.504C142.658 60.1867 145.431 61.0613 147.778 62.128C150.167 63.1947 152.023 64.6027 153.346 66.352C154.668 68.1013 155.33 70.3413 155.33 73.072C155.33 75.8027 154.626 78.2133 153.218 80.304C151.852 82.352 149.89 83.9733 147.33 85.168C144.812 86.32 141.826 86.896 138.37 86.896ZM161.63 86V41.2H180.062C182.878 41.2 185.353 41.776 187.486 42.928C189.662 44.0373 191.348 45.616 192.542 47.664C193.78 49.712 194.398 52.144 194.398 54.96V55.856C194.398 58.6293 193.758 61.0613 192.478 63.152C191.241 65.2 189.534 66.8 187.358 67.952C185.225 69.0613 182.793 69.616 180.062 69.616H170.078V86H161.63ZM170.078 61.936H179.23C181.236 61.936 182.857 61.3813 184.094 60.272C185.332 59.1627 185.95 57.648 185.95 55.728V55.088C185.95 53.168 185.332 51.6533 184.094 50.544C182.857 49.4347 181.236 48.88 179.23 48.88H170.078V61.936ZM193.746 86L205.522 41.2H220.242L232.018 86H223.314L220.882 76.144H204.882L202.45 86H193.746ZM206.866 68.336H218.898L213.458 46.512H212.306L206.866 68.336ZM254.029 86.896C248.483 86.896 244.088 85.36 240.845 82.288C237.603 79.1733 235.981 74.736 235.981 68.976V58.224C235.981 52.464 237.603 48.048 240.845 44.976C244.088 41.8613 248.483 40.304 254.029 40.304C259.533 40.304 263.779 41.8187 266.765 44.848C269.795 47.8347 271.309 51.952 271.309 57.2V57.584H262.989V56.944C262.989 54.2987 262.243 52.1227 260.749 50.416C259.299 48.7093 257.059 47.856 254.029 47.856C251.043 47.856 248.696 48.7733 246.989 50.608C245.283 52.4427 244.429 54.9387 244.429 58.096V69.104C244.429 72.2187 245.283 74.7147 246.989 76.592C248.696 78.4267 251.043 79.344 254.029 79.344C257.059 79.344 259.299 78.4907 260.749 76.784C262.243 75.0347 262.989 72.8587 262.989 70.256V69.104H271.309V70C271.309 75.248 269.795 79.3867 266.765 82.416C263.779 85.4027 259.533 86.896 254.029 86.896ZM278.193 86V41.2H306.993V48.88H286.641V59.568H305.201V67.248H286.641V78.32H307.377V86H278.193Z" fill="#D3965D"/>
<path d="M129.218 85.04L128.37 86.8516L129.218 85.04ZM123.01 79.728L124.688 78.6402L123.01 79.728ZM120.77 69.616V67.616C119.665 67.616 118.77 68.5114 118.77 69.616H120.77ZM129.09 69.616H131.09C131.09 68.5114 130.194 67.616 129.09 67.616V69.616ZM131.586 77.488L130.317 79.0341C130.325 79.0407 130.333 79.0472 130.341 79.0536L131.586 77.488ZM144.834 77.744L143.59 76.1778C143.582 76.1838 143.575 76.1899 143.567 76.1961L144.834 77.744ZM145.922 70.32L144.427 71.6487C144.44 71.6638 144.454 71.6786 144.468 71.6932L145.922 70.32ZM142.85 68.464L142.128 70.3291C142.152 70.3383 142.175 70.3471 142.2 70.3554L142.85 68.464ZM137.986 67.056L138.42 65.1036L138.411 65.1016L137.986 67.056ZM136.514 66.736L136.08 68.6884L136.089 68.6903L136.514 66.736ZM128.578 64.176L127.697 65.9718C127.711 65.9787 127.725 65.9854 127.74 65.9919L128.578 64.176ZM123.522 60.016L121.864 61.1349C121.87 61.1443 121.877 61.1537 121.883 61.1629L123.522 60.016ZM123.714 46.384L122.055 45.2663L122.05 45.2746L123.714 46.384ZM129.218 41.904L130.018 43.7371C130.023 43.7348 130.028 43.7326 130.033 43.7303L129.218 41.904ZM146.114 41.968L145.296 43.793C145.308 43.7986 145.321 43.8041 145.333 43.8095L146.114 41.968ZM152.002 46.832L150.323 47.9185C150.331 47.9313 150.339 47.944 150.348 47.9566L152.002 46.832ZM154.178 56.816V58.816C155.282 58.816 156.178 57.9206 156.178 56.816H154.178ZM145.858 56.816H143.858C143.858 57.9206 144.753 58.816 145.858 58.816V56.816ZM144.834 50.8L143.119 51.829C143.135 51.8562 143.152 51.883 143.17 51.9094L144.834 50.8ZM142.018 48.496L141.253 50.344C141.271 50.3516 141.29 50.3589 141.308 50.366L142.018 48.496ZM131.906 49.2L133.141 50.7726L133.149 50.767L131.906 49.2ZM130.946 55.92L129.324 57.091C129.338 57.1102 129.352 57.1292 129.367 57.1479L130.946 55.92ZM137.986 59.184L138.411 57.2296L138.405 57.2284L137.986 59.184ZM139.458 59.504L139.033 61.4584L139.04 61.46L139.458 59.504ZM147.778 62.128L146.95 63.9488L146.962 63.9543L147.778 62.128ZM153.346 66.352L154.941 65.1458V65.1458L153.346 66.352ZM153.218 80.304L151.559 79.1868L151.554 79.1946L153.218 80.304ZM147.33 85.168L148.162 86.9866C148.167 86.9846 148.171 86.9825 148.176 86.9804L147.33 85.168ZM138.37 86.896V84.896C135.153 84.896 132.401 84.3209 130.065 83.2284L129.218 85.04L128.37 86.8516C131.325 88.2337 134.674 88.896 138.37 88.896V86.896ZM129.218 85.04L130.065 83.2284C127.737 82.1392 125.965 80.6096 124.688 78.6402L123.01 79.728L121.331 80.8158C123.042 83.4544 125.408 85.4661 128.37 86.8516L129.218 85.04ZM123.01 79.728L124.688 78.6402C123.44 76.715 122.77 74.3357 122.77 71.408H120.77H118.77C118.77 74.9656 119.593 78.133 121.331 80.8158L123.01 79.728ZM120.77 71.408H122.77V69.616H120.77H118.77V71.408H120.77ZM120.77 69.616V71.616H129.09V69.616V67.616H120.77V69.616ZM129.09 69.616H127.09V71.408H129.09H131.09V69.616H129.09ZM129.09 71.408H127.09C127.09 74.5322 128.078 77.1965 130.317 79.0341L131.586 77.488L132.854 75.9419C131.766 75.0488 131.09 73.6598 131.09 71.408H129.09ZM131.586 77.488L130.341 79.0536C132.464 80.741 135.215 81.472 138.37 81.472V79.472V77.472C135.808 77.472 134.035 76.8803 132.83 75.9224L131.586 77.488ZM138.37 79.472V81.472C141.475 81.472 144.177 80.8658 146.1 79.2919L144.834 77.744L143.567 76.1961C142.675 76.9262 141.067 77.472 138.37 77.472V79.472ZM144.834 77.744L146.078 79.3102C147.987 77.7937 149.01 75.7536 149.01 73.328H147.01H145.01C145.01 74.4864 144.582 75.3903 143.59 76.1778L144.834 77.744ZM147.01 73.328H149.01C149.01 71.6735 148.511 70.1488 147.376 68.9468L145.922 70.32L144.468 71.6932C144.783 72.0272 145.01 72.5078 145.01 73.328H147.01ZM145.922 70.32L147.417 68.9913C146.431 67.8829 145.066 67.1109 143.5 66.5726L142.85 68.464L142.2 70.3554C143.364 70.7558 144.047 71.2211 144.427 71.6487L145.922 70.32ZM142.85 68.464L143.572 66.5989C142.127 66.0397 140.403 65.5444 138.42 65.1036L137.986 67.056L137.552 69.0084C139.408 69.4209 140.927 69.8643 142.128 70.3291L142.85 68.464ZM137.986 67.056L138.411 65.1016L136.939 64.7816L136.514 66.736L136.089 68.6903L137.561 69.0104L137.986 67.056ZM136.514 66.736L136.948 64.7836C133.977 64.1236 131.474 63.3101 129.416 62.3601L128.578 64.176L127.74 65.9919C130.119 67.0899 132.906 67.9831 136.08 68.6884L136.514 66.736ZM128.578 64.176L129.458 62.3802C127.536 61.4378 126.132 60.2566 125.16 58.8691L123.522 60.016L121.883 61.1629C123.301 63.1887 125.268 64.7809 127.697 65.9718L128.578 64.176ZM123.522 60.016L125.179 58.8971C124.313 57.613 123.794 55.8198 123.794 53.36H121.794H119.794C119.794 56.3616 120.427 59.0057 121.864 61.1349L123.522 60.016ZM121.794 53.36H123.794C123.794 50.9504 124.355 49.0284 125.378 47.4934L123.714 46.384L122.05 45.2746C120.513 47.5796 119.794 50.3083 119.794 53.36H121.794ZM123.714 46.384L125.372 47.5017C126.465 45.8801 127.99 44.622 130.018 43.7371L129.218 41.904L128.418 40.0709C125.752 41.234 123.608 42.9626 122.055 45.2663L123.714 46.384ZM129.218 41.904L130.033 43.7303C132.115 42.8007 134.622 42.304 137.602 42.304V40.304V38.304C134.182 38.304 131.099 38.874 128.402 40.0777L129.218 41.904ZM137.602 40.304V42.304C140.57 42.304 143.12 42.8179 145.296 43.793L146.114 41.968L146.932 40.143C144.158 38.8994 141.034 38.304 137.602 38.304V40.304ZM146.114 41.968L145.333 43.8095C147.504 44.7291 149.144 46.0973 150.323 47.9185L152.002 46.832L153.681 45.7455C152.043 43.2146 149.758 41.3402 146.894 40.1265L146.114 41.968ZM152.002 46.832L150.348 47.9566C151.521 49.6821 152.178 51.9512 152.178 54.896H154.178H156.178C156.178 51.3555 155.384 48.2486 153.656 45.7074L152.002 46.832ZM154.178 54.896H152.178V56.816H154.178H156.178V54.896H154.178ZM154.178 56.816V54.816H145.858V56.816V58.816H154.178V56.816ZM145.858 56.816H147.858V54.896H145.858H143.858V56.816H145.858ZM145.858 54.896H147.858C147.858 52.9421 147.469 51.1475 146.498 49.6906L144.834 50.8L143.17 51.9094C143.564 52.5005 143.858 53.4366 143.858 54.896H145.858ZM144.834 50.8L146.549 49.771C145.662 48.2934 144.356 47.2438 142.727 46.626L142.018 48.496L141.308 50.366C142.154 50.6869 142.725 51.1733 143.119 51.829L144.834 50.8ZM142.018 48.496L142.782 46.648C141.246 46.0122 139.502 45.728 137.602 45.728V47.728V49.728C139.115 49.728 140.315 49.9558 141.253 50.344L142.018 48.496ZM137.602 47.728V45.728C134.85 45.728 132.414 46.244 130.663 47.633L131.906 49.2L133.149 50.767C133.872 50.1934 135.233 49.728 137.602 49.728V47.728ZM131.906 49.2L130.67 47.6274C128.943 48.9847 128.114 50.8932 128.114 53.104H130.114H132.114C132.114 51.9868 132.48 51.2926 133.141 50.7726L131.906 49.2ZM130.114 53.104H128.114C128.114 54.5596 128.483 55.9266 129.324 57.091L130.946 55.92L132.567 54.749C132.299 54.3774 132.114 53.8671 132.114 53.104H130.114ZM130.946 55.92L129.367 57.1479C130.218 58.2414 131.391 59.0602 132.757 59.6676L133.57 57.84L134.382 56.0124C133.445 55.5958 132.869 55.1346 132.524 54.6921L130.946 55.92ZM133.57 57.84L132.757 59.6676C134.079 60.2547 135.695 60.7384 137.567 61.1396L137.986 59.184L138.405 57.2284C136.693 56.8616 135.365 56.4493 134.382 56.0124L133.57 57.84ZM137.986 59.184L137.561 61.1384L139.033 61.4584L139.458 59.504L139.883 57.5496L138.411 57.2296L137.986 59.184ZM139.458 59.504L139.04 61.46C142.135 62.1202 144.765 62.9553 146.95 63.9487L147.778 62.128L148.605 60.3073C146.098 59.1674 143.18 58.2532 139.875 57.548L139.458 59.504ZM147.778 62.128L146.962 63.9543C149.103 64.9099 150.667 66.1256 151.75 67.5582L153.346 66.352L154.941 65.1458C153.379 63.0797 151.231 61.4794 148.593 60.3017L147.778 62.128ZM153.346 66.352L151.75 67.5582C152.752 68.8826 153.33 70.6682 153.33 73.072H155.33H157.33C157.33 70.0145 156.585 67.3201 154.941 65.1458L153.346 66.352ZM155.33 73.072H153.33C153.33 75.4394 152.726 77.454 151.559 79.1868L153.218 80.304L154.877 81.4212C156.526 78.9727 157.33 76.166 157.33 73.072H155.33ZM153.218 80.304L151.554 79.1946C150.42 80.8949 148.762 82.2926 146.484 83.3556L147.33 85.168L148.176 86.9804C151.018 85.6541 153.285 83.8091 154.882 81.4134L153.218 80.304ZM147.33 85.168L146.498 83.3494C144.298 84.356 141.608 84.896 138.37 84.896V86.896V88.896C142.044 88.896 145.327 88.284 148.162 86.9866L147.33 85.168ZM161.63 86H159.63C159.63 87.1046 160.526 88 161.63 88V86ZM161.63 41.2V39.2C160.526 39.2 159.63 40.0954 159.63 41.2H161.63ZM187.486 42.928L186.536 44.6878C186.55 44.6953 186.564 44.7026 186.578 44.7098L187.486 42.928ZM192.542 47.664L190.815 48.6717C190.82 48.6806 190.825 48.6894 190.83 48.6982L192.542 47.664ZM192.478 63.152L190.773 62.1077L190.766 62.1178L192.478 63.152ZM187.358 67.952L188.281 69.7264C188.285 69.7242 188.29 69.7219 188.294 69.7196L187.358 67.952ZM170.078 69.616V67.616C168.974 67.616 168.078 68.5114 168.078 69.616H170.078ZM170.078 86V88C171.183 88 172.078 87.1046 172.078 86H170.078ZM170.078 61.936H168.078C168.078 63.0406 168.974 63.936 170.078 63.936V61.936ZM184.094 60.272L185.429 61.7611V61.7611L184.094 60.272ZM184.094 50.544L185.429 49.0549V49.0549L184.094 50.544ZM170.078 48.88V46.88C168.974 46.88 168.078 47.7754 168.078 48.88H170.078ZM161.63 86H163.63V41.2H161.63H159.63V86H161.63ZM161.63 41.2V43.2H180.062V41.2V39.2H161.63V41.2ZM180.062 41.2V43.2C182.6 43.2 184.739 43.7172 186.536 44.6878L187.486 42.928L188.437 41.1682C185.967 39.8348 183.156 39.2 180.062 39.2V41.2ZM187.486 42.928L186.578 44.7098C188.423 45.6505 189.819 46.9653 190.815 48.6717L192.542 47.664L194.27 46.6563C192.876 44.2666 190.901 42.4241 188.395 41.1462L187.486 42.928ZM192.542 47.664L190.83 48.6982C191.848 50.3827 192.398 52.4434 192.398 54.96H194.398H196.398C196.398 51.8446 195.711 49.0413 194.254 46.6298L192.542 47.664ZM194.398 54.96H192.398V55.856H194.398H196.398V54.96H194.398ZM194.398 55.856H192.398C192.398 58.3103 191.836 60.3711 190.773 62.1077L192.478 63.152L194.184 64.1963C195.681 61.7515 196.398 58.9483 196.398 55.856H194.398ZM192.478 63.152L190.766 62.1178C189.722 63.8462 188.288 65.1969 186.422 66.1844L187.358 67.952L188.294 69.7196C190.781 68.4031 192.76 66.5538 194.19 64.1862L192.478 63.152ZM187.358 67.952L186.436 66.1776C184.624 67.1197 182.516 67.616 180.062 67.616V69.616V71.616C183.07 71.616 185.826 71.003 188.281 69.7264L187.358 67.952ZM180.062 69.616V67.616H170.078V69.616V71.616H180.062V69.616ZM170.078 69.616H168.078V86H170.078H172.078V69.616H170.078ZM170.078 86V84H161.63V86V88H170.078V86ZM170.078 61.936V63.936H179.23V61.936V59.936H170.078V61.936ZM179.23 61.936V63.936C181.621 63.936 183.753 63.2645 185.429 61.7611L184.094 60.272L182.759 58.7829C181.961 59.4982 180.85 59.936 179.23 59.936V61.936ZM184.094 60.272L185.429 61.7611C187.157 60.212 187.95 58.119 187.95 55.728H185.95H183.95C183.95 57.177 183.506 58.1133 182.759 58.7829L184.094 60.272ZM185.95 55.728H187.95V55.088H185.95H183.95V55.728H185.95ZM185.95 55.088H187.95C187.95 52.697 187.157 50.604 185.429 49.0549L184.094 50.544L182.759 52.0331C183.506 52.7026 183.95 53.639 183.95 55.088H185.95ZM184.094 50.544L185.429 49.0549C183.753 47.5515 181.621 46.88 179.23 46.88V48.88V50.88C180.85 50.88 181.961 51.3178 182.759 52.0331L184.094 50.544ZM179.23 48.88V46.88H170.078V48.88V50.88H179.23V48.88ZM170.078 48.88H168.078V61.936H170.078H172.078V48.88H170.078ZM193.746 86L191.811 85.4916C191.654 86.0913 191.783 86.7302 192.162 87.2213C192.541 87.7124 193.126 88 193.746 88V86ZM205.522 41.2V39.2C204.613 39.2 203.818 39.8127 203.587 40.6916L205.522 41.2ZM220.242 41.2L222.176 40.6916C221.945 39.8127 221.15 39.2 220.242 39.2V41.2ZM232.018 86V88C232.638 88 233.223 87.7124 233.602 87.2213C233.98 86.7302 234.11 86.0913 233.952 85.4916L232.018 86ZM223.314 86L221.372 86.4791C221.592 87.3724 222.394 88 223.314 88V86ZM220.882 76.144L222.824 75.6649C222.603 74.7716 221.802 74.144 220.882 74.144V76.144ZM204.882 76.144V74.144C203.962 74.144 203.16 74.7716 202.94 75.6649L204.882 76.144ZM202.45 86V88C203.37 88 204.171 87.3724 204.392 86.4791L202.45 86ZM206.866 68.336L204.925 67.8523C204.776 68.4496 204.911 69.0823 205.29 69.5674C205.669 70.0525 206.25 70.336 206.866 70.336V68.336ZM218.898 68.336V70.336C219.513 70.336 220.095 70.0525 220.474 69.5674C220.853 69.0823 220.987 68.4496 220.838 67.8523L218.898 68.336ZM213.458 46.512L215.398 46.0283C215.176 45.1373 214.376 44.512 213.458 44.512V46.512ZM212.306 46.512V44.512C211.388 44.512 210.587 45.1373 210.365 46.0283L212.306 46.512ZM193.746 86L195.68 86.5084L207.456 41.7084L205.522 41.2L203.587 40.6916L191.811 85.4916L193.746 86ZM205.522 41.2V43.2H220.242V41.2V39.2H205.522V41.2ZM220.242 41.2L218.307 41.7084L230.083 86.5084L232.018 86L233.952 85.4916L222.176 40.6916L220.242 41.2ZM232.018 86V84H223.314V86V88H232.018V86ZM223.314 86L225.256 85.5209L222.824 75.6649L220.882 76.144L218.94 76.6231L221.372 86.4791L223.314 86ZM220.882 76.144V74.144H204.882V76.144V78.144H220.882V76.144ZM204.882 76.144L202.94 75.6649L200.508 85.5209L202.45 86L204.392 86.4791L206.824 76.6231L204.882 76.144ZM202.45 86V84H193.746V86V88H202.45V86ZM206.866 68.336V70.336H218.898V68.336V66.336H206.866V68.336ZM218.898 68.336L220.838 67.8523L215.398 46.0283L213.458 46.512L211.517 46.9957L216.957 68.8197L218.898 68.336ZM213.458 46.512V44.512H212.306V46.512V48.512H213.458V46.512ZM212.306 46.512L210.365 46.0283L204.925 67.8523L206.866 68.336L208.806 68.8197L214.246 46.9957L212.306 46.512ZM240.845 82.288L239.46 83.7304L239.47 83.7399L240.845 82.288ZM240.845 44.976L242.221 46.4279L242.231 46.4184L240.845 44.976ZM266.765 44.848L265.341 46.2521C265.348 46.2589 265.354 46.2656 265.361 46.2722L266.765 44.848ZM271.309 57.584V59.584C272.414 59.584 273.309 58.6886 273.309 57.584H271.309ZM262.989 57.584H260.989C260.989 58.6886 261.885 59.584 262.989 59.584V57.584ZM260.749 50.416L259.225 51.7113C259.232 51.7186 259.238 51.7258 259.244 51.733L260.749 50.416ZM246.989 76.592L245.509 77.9373C245.515 77.943 245.52 77.9486 245.525 77.9542L246.989 76.592ZM260.749 76.784L259.228 75.4855L259.225 75.4887L260.749 76.784ZM262.989 69.104V67.104C261.885 67.104 260.989 67.9994 260.989 69.104H262.989ZM271.309 69.104H273.309C273.309 67.9994 272.414 67.104 271.309 67.104V69.104ZM266.765 82.416L265.351 81.0018L266.765 82.416ZM254.029 86.896V84.896C248.864 84.896 245.007 83.476 242.221 80.8361L240.845 82.288L239.47 83.7399C243.169 87.244 248.101 88.896 254.029 88.896V86.896ZM240.845 82.288L242.231 80.8456C239.484 78.2068 237.981 74.3529 237.981 68.976H235.981H233.981C233.981 75.1191 235.722 80.1398 239.46 83.7304L240.845 82.288ZM235.981 68.976H237.981V58.224H235.981H233.981V68.976H235.981ZM235.981 58.224H237.981C237.981 52.8456 239.484 49.0206 242.221 46.4279L240.845 44.976L239.47 43.5241C235.721 47.0754 233.981 52.0824 233.981 58.224H235.981ZM240.845 44.976L242.231 46.4184C245.018 43.7409 248.872 42.304 254.029 42.304V40.304V38.304C248.093 38.304 243.158 39.9818 239.46 43.5336L240.845 44.976ZM254.029 40.304V42.304C259.162 42.304 262.832 43.7071 265.341 46.2521L266.765 44.848L268.189 43.4439C264.725 39.9302 259.904 38.304 254.029 38.304V40.304ZM266.765 44.848L265.361 46.2722C267.924 48.7989 269.309 52.3544 269.309 57.2H271.309H273.309C273.309 51.5496 271.665 46.8704 268.169 43.4238L266.765 44.848ZM271.309 57.2H269.309V57.584H271.309H273.309V57.2H271.309ZM271.309 57.584V55.584H262.989V57.584V59.584H271.309V57.584ZM262.989 57.584H264.989V56.944H262.989H260.989V57.584H262.989ZM262.989 56.944H264.989C264.989 53.8996 264.119 51.2297 262.254 49.099L260.749 50.416L259.244 51.733C260.366 53.0156 260.989 54.6977 260.989 56.944H262.989ZM260.749 50.416L262.273 49.1207C260.321 46.8238 257.427 45.856 254.029 45.856V47.856V49.856C256.69 49.856 258.276 50.5948 259.225 51.7113L260.749 50.416ZM254.029 47.856V45.856C250.603 45.856 247.682 46.9268 245.525 49.2458L246.989 50.608L248.454 51.9702C249.71 50.6199 251.482 49.856 254.029 49.856V47.856ZM246.989 50.608L245.525 49.2458C243.391 51.5399 242.429 54.5702 242.429 58.096H244.429H246.429C246.429 55.3071 247.174 53.3454 248.454 51.9702L246.989 50.608ZM244.429 58.096H242.429V69.104H244.429H246.429V58.096H244.429ZM244.429 69.104H242.429C242.429 72.5976 243.396 75.6126 245.509 77.9373L246.989 76.592L248.469 75.2467C247.169 73.8167 246.429 71.8398 246.429 69.104H244.429ZM246.989 76.592L245.525 77.9542C247.682 80.2732 250.603 81.344 254.029 81.344V79.344V77.344C251.482 77.344 249.71 76.5801 248.454 75.2298L246.989 76.592ZM254.029 79.344V81.344C257.427 81.344 260.321 80.3762 262.273 78.0793L260.749 76.784L259.225 75.4887C258.276 76.6052 256.69 77.344 254.029 77.344V79.344ZM260.749 76.784L262.27 78.0825C264.113 75.9235 264.989 73.268 264.989 70.256H262.989H260.989C260.989 72.4493 260.372 74.1459 259.228 75.4855L260.749 76.784ZM262.989 70.256H264.989V69.104H262.989H260.989V70.256H262.989ZM262.989 69.104V71.104H271.309V69.104V67.104H262.989V69.104ZM271.309 69.104H269.309V70H271.309H273.309V69.104H271.309ZM271.309 70H269.309C269.309 74.8445 267.924 78.4286 265.351 81.0018L266.765 82.416L268.179 83.8302C271.665 80.3447 273.309 75.6515 273.309 70H271.309ZM266.765 82.416L265.351 81.0018C262.843 83.5096 259.17 84.896 254.029 84.896V86.896V88.896C259.896 88.896 264.714 87.2957 268.179 83.8302L266.765 82.416ZM278.193 86H276.193C276.193 87.1046 277.088 88 278.193 88V86ZM278.193 41.2V39.2C277.088 39.2 276.193 40.0954 276.193 41.2H278.193ZM306.993 41.2H308.993C308.993 40.0954 308.097 39.2 306.993 39.2V41.2ZM306.993 48.88V50.88C308.097 50.88 308.993 49.9846 308.993 48.88H306.993ZM286.641 48.88V46.88C285.536 46.88 284.641 47.7754 284.641 48.88H286.641ZM286.641 59.568H284.641C284.641 60.6726 285.536 61.568 286.641 61.568V59.568ZM305.201 59.568H307.201C307.201 58.4634 306.305 57.568 305.201 57.568V59.568ZM305.201 67.248V69.248C306.305 69.248 307.201 68.3526 307.201 67.248H305.201ZM286.641 67.248V65.248C285.536 65.248 284.641 66.1434 284.641 67.248H286.641ZM286.641 78.32H284.641C284.641 79.4246 285.536 80.32 286.641 80.32V78.32ZM307.377 78.32H309.377C309.377 77.2154 308.481 76.32 307.377 76.32V78.32ZM307.377 86V88C308.481 88 309.377 87.1046 309.377 86H307.377ZM278.193 86H280.193V41.2H278.193H276.193V86H278.193ZM278.193 41.2V43.2H306.993V41.2V39.2H278.193V41.2ZM306.993 41.2H304.993V48.88H306.993H308.993V41.2H306.993ZM306.993 48.88V46.88H286.641V48.88V50.88H306.993V48.88ZM286.641 48.88H284.641V59.568H286.641H288.641V48.88H286.641ZM286.641 59.568V61.568H305.201V59.568V57.568H286.641V59.568ZM305.201 59.568H303.201V67.248H305.201H307.201V59.568H305.201ZM305.201 67.248V65.248H286.641V67.248V69.248H305.201V67.248ZM286.641 67.248H284.641V78.32H286.641H288.641V67.248H286.641ZM286.641 78.32V80.32H307.377V78.32V76.32H286.641V78.32ZM307.377 78.32H305.377V86H307.377H309.377V78.32H307.377ZM307.377 86V84H278.193V86V88H307.377V86Z" fill="#D3965D" mask="url(#path-4-outside-3_115_40)"/>
</svg>
