<svg width="125" height="125" viewBox="0 0 125 125" fill="none" xmlns="http://www.w3.org/2000/svg">
<path d="M71.1131 40.1744C72.0802 37.5174 75.0498 36.1105 77.4979 37.5254C81.9894 40.1214 85.7383 43.8823 88.3228 48.4509C91.7532 54.5148 92.9071 61.6038 91.577 68.4425C90.2469 75.2813 86.5201 81.421 81.067 85.7571C75.6139 90.0932 68.7925 92.3411 61.8299 92.0964C54.8673 91.8517 48.2205 89.1305 43.0853 84.4224C37.95 79.7142 34.6634 73.328 33.8166 66.4128C32.9698 59.4975 34.6185 52.5071 38.466 46.6989C41.3648 42.323 45.3685 38.8345 50.0312 36.5602C52.5725 35.3207 55.4361 36.9325 56.2143 39.6508C56.9924 42.3692 55.3624 45.1503 52.9489 46.6234C50.5883 48.0643 48.5523 50.0138 47.0023 52.3537C44.5013 56.1291 43.4296 60.6731 43.9801 65.1683C44.5305 69.6634 46.6669 73.8145 50.005 76.875C53.343 79.9355 57.6636 81.7043 62.1895 81.8633C66.7154 82.0224 71.1495 80.5612 74.6942 77.7426C78.2388 74.924 80.6614 70.933 81.526 66.4876C82.3906 62.0423 81.6405 57.4342 79.4107 53.4925C78.0287 51.0496 76.1346 48.9621 73.881 47.359C71.5769 45.72 70.146 42.8314 71.1131 40.1744Z" fill="#D3965D"/>
<path d="M77.0926 102.593C78.2443 105.757 81.7665 107.422 84.7623 105.885C93.1976 101.556 100.231 94.8385 104.942 86.5098C110.66 76.4034 112.583 64.5885 110.366 53.1905C108.149 41.7926 101.938 31.5598 92.8493 24.333C83.7609 17.1061 72.3918 13.3596 60.7875 13.7674C49.1831 14.1752 38.1052 18.7105 29.5464 26.5575C20.9877 34.4044 15.5099 45.048 14.0986 56.5734C12.6873 68.0989 15.4351 79.7496 21.8477 89.4298C27.1322 97.4072 34.6197 103.615 43.3379 107.34C46.4343 108.664 49.831 106.756 50.7577 103.518C51.6844 100.281 49.7791 96.9504 46.7406 95.4992C40.7964 92.6604 35.6929 88.2501 32.0134 82.6957C27.2044 75.4361 25.1438 66.6988 26.2021 58.0555C27.2605 49.4122 31.3685 41.4302 37.787 35.5455C44.2055 29.6608 52.5132 26.2596 61.2157 25.9538C69.9182 25.648 78.4443 28.4576 85.26 33.8773C92.0758 39.2969 96.7339 46.9708 98.3963 55.5186C100.059 64.0663 98.6165 72.9267 94.329 80.5059C91.0485 86.3049 86.2671 91.0626 80.5369 94.3116C77.6077 95.9725 75.9409 99.4289 77.0926 102.593Z" fill="#D3965D"/>
<circle cx="62.4166" cy="62.4166" r="9.75257" fill="#D3965D"/>
</svg>
